G04 #@! TF.GenerationSoftware,KiCad,Pcbnew,(6.0.0-rc1-dev-205-gc0615c5ef)*
G04 #@! TF.CreationDate,2018-08-06T10:50:12+02:00*
G04 #@! TF.ProjectId,DIODECOVER01A,44494F4445434F5645523031412E6B69,REV*
G04 #@! TF.SameCoordinates,Original*
G04 #@! TF.FileFunction,Legend,Top*
G04 #@! TF.FilePolarity,Positive*
%FSLAX46Y46*%
G04 Gerber Fmt 4.6, Leading zero omitted, Abs format (unit mm)*
G04 Created by KiCad (PCBNEW (6.0.0-rc1-dev-205-gc0615c5ef)) date 08/06/18 10:50:12*
%MOMM*%
%LPD*%
G01*
G04 APERTURE LIST*
%ADD10C,0.300000*%
%ADD11C,0.100000*%
%ADD12C,0.150000*%
%ADD13C,0.050000*%
G04 APERTURE END LIST*
D10*
X16553571Y14093571D02*
X15053571Y14093571D01*
X16125000Y14593571D01*
X15053571Y15093571D01*
X16553571Y15093571D01*
X16553571Y16522142D02*
X16553571Y15807857D01*
X15053571Y15807857D01*
X16125000Y16950714D02*
X16125000Y17665000D01*
X16553571Y16807857D02*
X15053571Y17307857D01*
X16553571Y17807857D01*
X15767857Y18807857D02*
X15839285Y19022142D01*
X15910714Y19093571D01*
X16053571Y19165000D01*
X16267857Y19165000D01*
X16410714Y19093571D01*
X16482142Y19022142D01*
X16553571Y18879285D01*
X16553571Y18307857D01*
X15053571Y18307857D01*
X15053571Y18807857D01*
X15125000Y18950714D01*
X15196428Y19022142D01*
X15339285Y19093571D01*
X15482142Y19093571D01*
X15625000Y19022142D01*
X15696428Y18950714D01*
X15767857Y18807857D01*
X15767857Y18307857D01*
X16410714Y19807857D02*
X16482142Y19879285D01*
X16553571Y19807857D01*
X16482142Y19736428D01*
X16410714Y19807857D01*
X16553571Y19807857D01*
X16410714Y21379285D02*
X16482142Y21307857D01*
X16553571Y21093571D01*
X16553571Y20950714D01*
X16482142Y20736428D01*
X16339285Y20593571D01*
X16196428Y20522142D01*
X15910714Y20450714D01*
X15696428Y20450714D01*
X15410714Y20522142D01*
X15267857Y20593571D01*
X15125000Y20736428D01*
X15053571Y20950714D01*
X15053571Y21093571D01*
X15125000Y21307857D01*
X15196428Y21379285D01*
X15053571Y21879285D02*
X15053571Y22879285D01*
X16553571Y21879285D01*
X16553571Y22879285D01*
X20363571Y10407142D02*
X18863571Y10407142D01*
X18863571Y10764285D01*
X18935000Y10978571D01*
X19077857Y11121428D01*
X19220714Y11192857D01*
X19506428Y11264285D01*
X19720714Y11264285D01*
X20006428Y11192857D01*
X20149285Y11121428D01*
X20292142Y10978571D01*
X20363571Y10764285D01*
X20363571Y10407142D01*
X20363571Y11907142D02*
X18863571Y11907142D01*
X18863571Y12907142D02*
X18863571Y13192857D01*
X18935000Y13335714D01*
X19077857Y13478571D01*
X19363571Y13550000D01*
X19863571Y13550000D01*
X20149285Y13478571D01*
X20292142Y13335714D01*
X20363571Y13192857D01*
X20363571Y12907142D01*
X20292142Y12764285D01*
X20149285Y12621428D01*
X19863571Y12550000D01*
X19363571Y12550000D01*
X19077857Y12621428D01*
X18935000Y12764285D01*
X18863571Y12907142D01*
X20363571Y14192857D02*
X18863571Y14192857D01*
X18863571Y14550000D01*
X18935000Y14764285D01*
X19077857Y14907142D01*
X19220714Y14978571D01*
X19506428Y15050000D01*
X19720714Y15050000D01*
X20006428Y14978571D01*
X20149285Y14907142D01*
X20292142Y14764285D01*
X20363571Y14550000D01*
X20363571Y14192857D01*
X19577857Y15692857D02*
X19577857Y16192857D01*
X20363571Y16407142D02*
X20363571Y15692857D01*
X18863571Y15692857D01*
X18863571Y16407142D01*
X20220714Y17907142D02*
X20292142Y17835714D01*
X20363571Y17621428D01*
X20363571Y17478571D01*
X20292142Y17264285D01*
X20149285Y17121428D01*
X20006428Y17050000D01*
X19720714Y16978571D01*
X19506428Y16978571D01*
X19220714Y17050000D01*
X19077857Y17121428D01*
X18935000Y17264285D01*
X18863571Y17478571D01*
X18863571Y17621428D01*
X18935000Y17835714D01*
X19006428Y17907142D01*
X18863571Y18835714D02*
X18863571Y19121428D01*
X18935000Y19264285D01*
X19077857Y19407142D01*
X19363571Y19478571D01*
X19863571Y19478571D01*
X20149285Y19407142D01*
X20292142Y19264285D01*
X20363571Y19121428D01*
X20363571Y18835714D01*
X20292142Y18692857D01*
X20149285Y18550000D01*
X19863571Y18478571D01*
X19363571Y18478571D01*
X19077857Y18550000D01*
X18935000Y18692857D01*
X18863571Y18835714D01*
X18863571Y19907142D02*
X20363571Y20407142D01*
X18863571Y20907142D01*
X19577857Y21407142D02*
X19577857Y21907142D01*
X20363571Y22121428D02*
X20363571Y21407142D01*
X18863571Y21407142D01*
X18863571Y22121428D01*
X20363571Y23621428D02*
X19649285Y23121428D01*
X20363571Y22764285D02*
X18863571Y22764285D01*
X18863571Y23335714D01*
X18935000Y23478571D01*
X19006428Y23550000D01*
X19149285Y23621428D01*
X19363571Y23621428D01*
X19506428Y23550000D01*
X19577857Y23478571D01*
X19649285Y23335714D01*
X19649285Y22764285D01*
X18863571Y24550000D02*
X18863571Y24692857D01*
X18935000Y24835714D01*
X19006428Y24907142D01*
X19149285Y24978571D01*
X19435000Y25050000D01*
X19792142Y25050000D01*
X20077857Y24978571D01*
X20220714Y24907142D01*
X20292142Y24835714D01*
X20363571Y24692857D01*
X20363571Y24550000D01*
X20292142Y24407142D01*
X20220714Y24335714D01*
X20077857Y24264285D01*
X19792142Y24192857D01*
X19435000Y24192857D01*
X19149285Y24264285D01*
X19006428Y24335714D01*
X18935000Y24407142D01*
X18863571Y24550000D01*
X20363571Y26478571D02*
X20363571Y25621428D01*
X20363571Y26050000D02*
X18863571Y26050000D01*
X19077857Y25907142D01*
X19220714Y25764285D01*
X19292142Y25621428D01*
X19935000Y27050000D02*
X19935000Y27764285D01*
X20363571Y26907142D02*
X18863571Y27407142D01*
X20363571Y27907142D01*
D11*
G04 #@! TO.C,D2*
X11950000Y6140000D02*
X11950000Y33140000D01*
X26150000Y33140000D02*
X11950000Y33140000D01*
X26150000Y6140000D02*
X26150000Y33140000D01*
X26150000Y6140000D02*
X11950000Y6140000D01*
D12*
G04 #@! TO.C,J1*
X6985000Y2540000D02*
X6985000Y5080000D01*
X6985000Y5080000D02*
X14605000Y5080000D01*
X14605000Y5080000D02*
X14605000Y2540000D01*
X14605000Y2540000D02*
X6985000Y2540000D01*
G04 #@! TO.C,J2*
X27305000Y3175000D02*
X27305000Y10795000D01*
X29845000Y3175000D02*
X27305000Y3175000D01*
X29845000Y10795000D02*
X29845000Y3175000D01*
X27305000Y10795000D02*
X29845000Y10795000D01*
G04 #@! TO.C,J3*
X27305000Y38735000D02*
X29845000Y38735000D01*
X29845000Y38735000D02*
X29845000Y31115000D01*
X29845000Y31115000D02*
X27305000Y31115000D01*
X27305000Y31115000D02*
X27305000Y38735000D01*
G04 #@! TO.C,D2*
X14501904Y24947619D02*
X14501904Y25947619D01*
X14740000Y25947619D01*
X14882857Y25900000D01*
X14978095Y25804761D01*
X15025714Y25709523D01*
X15073333Y25519047D01*
X15073333Y25376190D01*
X15025714Y25185714D01*
X14978095Y25090476D01*
X14882857Y24995238D01*
X14740000Y24947619D01*
X14501904Y24947619D01*
X15454285Y25852380D02*
X15501904Y25900000D01*
X15597142Y25947619D01*
X15835238Y25947619D01*
X15930476Y25900000D01*
X15978095Y25852380D01*
X16025714Y25757142D01*
X16025714Y25661904D01*
X15978095Y25519047D01*
X15406666Y24947619D01*
X16025714Y24947619D01*
X22598095Y28877619D02*
X22598095Y29877619D01*
X23169523Y28877619D02*
X22740952Y29449047D01*
X23169523Y29877619D02*
X22598095Y29306190D01*
G04 #@! TO.C,J1*
D13*
X8481190Y2301857D02*
X8481190Y2016142D01*
X8481190Y2159000D02*
X7981190Y2159000D01*
X8052619Y2111380D01*
X8100238Y2063761D01*
X8124047Y2016142D01*
G04 #@! TO.C,J2*
X27066857Y9298809D02*
X26781142Y9298809D01*
X26924000Y9298809D02*
X26924000Y9798809D01*
X26876380Y9727380D01*
X26828761Y9679761D01*
X26781142Y9655952D01*
G04 #@! TO.C,J3*
X27066857Y37238809D02*
X26781142Y37238809D01*
X26924000Y37238809D02*
X26924000Y37738809D01*
X26876380Y37667380D01*
X26828761Y37619761D01*
X26781142Y37595952D01*
G04 #@! TD*
M02*
