G04 #@! TF.GenerationSoftware,KiCad,Pcbnew,(6.0.0-rc1-dev-205-gc0615c5ef)*
G04 #@! TF.CreationDate,2018-08-07T08:17:07+02:00*
G04 #@! TF.ProjectId,DIODECOVER01A,44494F4445434F5645523031412E6B69,REV*
G04 #@! TF.SameCoordinates,Original*
G04 #@! TF.FileFunction,Copper,L2,Bot,Signal*
G04 #@! TF.FilePolarity,Positive*
%FSLAX46Y46*%
G04 Gerber Fmt 4.6, Leading zero omitted, Abs format (unit mm)*
G04 Created by KiCad (PCBNEW (6.0.0-rc1-dev-205-gc0615c5ef)) date 08/07/18 08:17:07*
%MOMM*%
%LPD*%
G01*
G04 APERTURE LIST*
G04 #@! TA.AperFunction,ComponentPad*
%ADD10R,1.524000X1.524000*%
G04 #@! TD*
G04 #@! TA.AperFunction,ViaPad*
%ADD11C,0.800000*%
G04 #@! TD*
G04 #@! TA.AperFunction,Conductor*
%ADD12C,0.250000*%
G04 #@! TD*
G04 #@! TA.AperFunction,Conductor*
%ADD13C,0.254000*%
G04 #@! TD*
G04 APERTURE END LIST*
D10*
G04 #@! TO.P,J1,3*
G04 #@! TO.N,GND*
X13335000Y3810000D03*
G04 #@! TO.P,J1,2*
X10795000Y3810000D03*
G04 #@! TO.P,J1,1*
X8255000Y3810000D03*
G04 #@! TD*
G04 #@! TO.P,J2,1*
G04 #@! TO.N,GND*
X28575000Y9525000D03*
G04 #@! TO.P,J2,2*
X28575000Y6985000D03*
G04 #@! TO.P,J2,3*
X28575000Y4445000D03*
G04 #@! TD*
G04 #@! TO.P,J3,3*
G04 #@! TO.N,GND*
X28575000Y32385000D03*
G04 #@! TO.P,J3,2*
X28575000Y34925000D03*
G04 #@! TO.P,J3,1*
X28575000Y37465000D03*
G04 #@! TD*
D11*
G04 #@! TO.N,GND*
X6350000Y33020000D03*
X6350000Y34290000D03*
X6350000Y35560000D03*
X6350000Y36830000D03*
X6350000Y38100000D03*
X7620000Y38100000D03*
X8890000Y38100000D03*
X10160000Y38100000D03*
X11430000Y38100000D03*
X12700000Y38100000D03*
X13970000Y38100000D03*
X19050000Y38100000D03*
X24130000Y38100000D03*
X25400000Y38100000D03*
X26670000Y38100000D03*
X6350000Y25400000D03*
X6350000Y24130000D03*
X6350000Y22860000D03*
X6350000Y21590000D03*
X6350000Y20320000D03*
X6350000Y19050000D03*
X6350000Y17780000D03*
X6350000Y16510000D03*
X6350000Y15240000D03*
X6350000Y13970000D03*
X6350000Y12700000D03*
X6350000Y11430000D03*
X6350000Y10160000D03*
X6350000Y8890000D03*
X6350000Y7620000D03*
X6350000Y6350000D03*
X6350000Y5080000D03*
X6350000Y3124000D03*
X15240000Y3124000D03*
X16510000Y3124000D03*
X17780000Y3124000D03*
X19050000Y3124000D03*
X20320000Y3124000D03*
X21590000Y3124000D03*
X22860000Y3124000D03*
X24130000Y3124000D03*
X25400000Y3124000D03*
X26670000Y3124000D03*
X29210000Y11430000D03*
X29210000Y12700000D03*
X29210000Y13970000D03*
X29210000Y15240000D03*
X29210000Y16510000D03*
X29210000Y17780000D03*
X29210000Y19050000D03*
X29210000Y20320000D03*
X29210000Y21590000D03*
X29210000Y22860000D03*
X29210000Y24130000D03*
X29210000Y25400000D03*
X29210000Y26670000D03*
X29210000Y27940000D03*
X29210000Y29210000D03*
X29210000Y30480000D03*
G04 #@! TD*
D12*
G04 #@! TO.N,GND*
X6350000Y34290000D02*
X6350000Y33020000D01*
X6350000Y36830000D02*
X6350000Y35560000D01*
X7620000Y38100000D02*
X6350000Y38100000D01*
X10160000Y38100000D02*
X8890000Y38100000D01*
X12700000Y38100000D02*
X11430000Y38100000D01*
X19050000Y38100000D02*
X13970000Y38100000D01*
X25400000Y38100000D02*
X24130000Y38100000D01*
X27305000Y37465000D02*
X26670000Y38100000D01*
X28575000Y37465000D02*
X27305000Y37465000D01*
X6350000Y22860000D02*
X6350000Y24130000D01*
X6350000Y20320000D02*
X6350000Y21590000D01*
X6350000Y17780000D02*
X6350000Y19050000D01*
X6350000Y15240000D02*
X6350000Y16510000D01*
X6350000Y12700000D02*
X6350000Y13970000D01*
X6350000Y10160000D02*
X6350000Y11430000D01*
X6350000Y7620000D02*
X6350000Y8890000D01*
X6350000Y5080000D02*
X6350000Y6350000D01*
X7036000Y3810000D02*
X6350000Y3124000D01*
X8255000Y3810000D02*
X7036000Y3810000D01*
X17780000Y3124000D02*
X16510000Y3124000D01*
X20320000Y3124000D02*
X19050000Y3124000D01*
X22860000Y3124000D02*
X21590000Y3124000D01*
X25400000Y3124000D02*
X24130000Y3124000D01*
X28575000Y3433000D02*
X28266000Y3124000D01*
X28575000Y4445000D02*
X28575000Y3433000D01*
X28266000Y3124000D02*
X26670000Y3124000D01*
X29210000Y12700000D02*
X29210000Y11430000D01*
X29210000Y15240000D02*
X29210000Y13970000D01*
X29210000Y17780000D02*
X29210000Y16510000D01*
X29210000Y20320000D02*
X29210000Y19050000D01*
X29210000Y22860000D02*
X29210000Y21590000D01*
X29210000Y25400000D02*
X29210000Y24130000D01*
X29210000Y27940000D02*
X29210000Y26670000D01*
X29210000Y30480000D02*
X29210000Y29210000D01*
G04 #@! TD*
D13*
G04 #@! TO.N,GND*
G36*
X29853001Y2597000D02*
X5561000Y2597000D01*
X5561000Y38889000D01*
X29853000Y38889000D01*
X29853001Y2597000D01*
X29853001Y2597000D01*
G37*
X29853001Y2597000D02*
X5561000Y2597000D01*
X5561000Y38889000D01*
X29853000Y38889000D01*
X29853001Y2597000D01*
G04 #@! TD*
M02*
