M48
;DRILL file {KiCad (6.0.0-rc1-dev-205-gc0615c5ef)} date 08/06/18 10:50:20
;FORMAT={-:-/ absolute / inch / decimal}
FMAT,2
INCH,TZ
T1C0.0157
T2C0.0350
%
G90
G05
M72
T1
X0.25Y1.5
X0.25Y1.45
X0.25Y1.4
X0.25Y1.35
X0.25Y1.3
X0.25Y1.
X0.25Y0.95
X0.25Y0.9
X0.25Y0.85
X0.25Y0.8
X0.25Y0.75
X0.25Y0.7
X0.25Y0.65
X0.25Y0.6
X0.25Y0.55
X0.25Y0.5
X0.25Y0.45
X0.25Y0.4
X0.25Y0.35
X0.25Y0.3
X0.25Y0.25
X0.25Y0.2
X0.25Y0.123
X0.3Y1.5
X0.35Y1.5
X0.4Y1.5
X0.45Y1.5
X0.5Y1.5
X0.55Y1.5
X0.6Y0.123
X0.65Y0.123
X0.7Y0.123
X0.75Y1.5
X0.75Y0.123
X0.8Y0.123
X0.85Y0.123
X0.9Y0.123
X0.95Y1.5
X0.95Y0.123
X1.Y1.5
X1.Y0.123
X1.05Y1.5
X1.05Y0.123
X1.15Y1.2
X1.15Y1.15
X1.15Y1.1
X1.15Y1.05
X1.15Y1.
X1.15Y0.95
X1.15Y0.9
X1.15Y0.85
X1.15Y0.8
X1.15Y0.75
X1.15Y0.7
X1.15Y0.65
X1.15Y0.6
X1.15Y0.55
X1.15Y0.5
X1.15Y0.45
T2
X1.125Y1.475
X1.125Y1.375
X1.125Y1.275
X1.125Y0.375
X1.125Y0.275
X1.125Y0.175
X0.325Y0.15
X0.425Y0.15
X0.525Y0.15
T0
M30
