G04 #@! TF.GenerationSoftware,KiCad,Pcbnew,(6.0.0-rc1-dev-205-gc0615c5ef)*
G04 #@! TF.CreationDate,2018-08-07T08:17:07+02:00*
G04 #@! TF.ProjectId,DIODECOVER01A,44494F4445434F5645523031412E6B69,REV*
G04 #@! TF.SameCoordinates,Original*
G04 #@! TF.FileFunction,Copper,L1,Top,Signal*
G04 #@! TF.FilePolarity,Positive*
%FSLAX46Y46*%
G04 Gerber Fmt 4.6, Leading zero omitted, Abs format (unit mm)*
G04 Created by KiCad (PCBNEW (6.0.0-rc1-dev-205-gc0615c5ef)) date 08/07/18 08:17:07*
%MOMM*%
%LPD*%
G01*
G04 APERTURE LIST*
G04 #@! TA.AperFunction,SMDPad,CuDef*
%ADD10R,2.000000X7.000000*%
G04 #@! TD*
G04 #@! TA.AperFunction,SMDPad,CuDef*
%ADD11R,4.000000X2.000000*%
G04 #@! TD*
G04 #@! TA.AperFunction,ComponentPad*
%ADD12R,1.524000X1.524000*%
G04 #@! TD*
G04 #@! TA.AperFunction,ViaPad*
%ADD13C,0.800000*%
G04 #@! TD*
G04 #@! TA.AperFunction,Conductor*
%ADD14C,0.250000*%
G04 #@! TD*
G04 #@! TA.AperFunction,Conductor*
%ADD15C,0.800000*%
G04 #@! TD*
G04 #@! TA.AperFunction,Conductor*
%ADD16C,0.254000*%
G04 #@! TD*
G04 APERTURE END LIST*
D10*
G04 #@! TO.P,D2,1*
G04 #@! TO.N,Net-(D2-Pad1)*
X21590000Y34410000D03*
G04 #@! TO.P,D2,2*
G04 #@! TO.N,/A*
X16510000Y34410000D03*
G04 #@! TD*
D11*
G04 #@! TO.P,J10,2*
G04 #@! TO.N,/A*
X7620000Y30480000D03*
G04 #@! TO.P,J10,1*
G04 #@! TO.N,Net-(D2-Pad1)*
X7620000Y27940000D03*
G04 #@! TD*
D12*
G04 #@! TO.P,J1,3*
G04 #@! TO.N,GND*
X13335000Y3810000D03*
G04 #@! TO.P,J1,2*
X10795000Y3810000D03*
G04 #@! TO.P,J1,1*
X8255000Y3810000D03*
G04 #@! TD*
G04 #@! TO.P,J2,1*
G04 #@! TO.N,GND*
X28575000Y9525000D03*
G04 #@! TO.P,J2,2*
X28575000Y6985000D03*
G04 #@! TO.P,J2,3*
X28575000Y4445000D03*
G04 #@! TD*
G04 #@! TO.P,J3,3*
G04 #@! TO.N,GND*
X28575000Y32385000D03*
G04 #@! TO.P,J3,2*
X28575000Y34925000D03*
G04 #@! TO.P,J3,1*
X28575000Y37465000D03*
G04 #@! TD*
D13*
G04 #@! TO.N,GND*
X6350000Y33020000D03*
X6350000Y34290000D03*
X6350000Y35560000D03*
X6350000Y36830000D03*
X6350000Y38100000D03*
X7620000Y38100000D03*
X8890000Y38100000D03*
X10160000Y38100000D03*
X11430000Y38100000D03*
X12700000Y38100000D03*
X13970000Y38100000D03*
X19050000Y38100000D03*
X24130000Y38100000D03*
X25400000Y38100000D03*
X26670000Y38100000D03*
X6350000Y25400000D03*
X6350000Y24130000D03*
X6350000Y22860000D03*
X6350000Y21590000D03*
X6350000Y20320000D03*
X6350000Y19050000D03*
X6350000Y17780000D03*
X6350000Y16510000D03*
X6350000Y15240000D03*
X6350000Y13970000D03*
X6350000Y12700000D03*
X6350000Y11430000D03*
X6350000Y10160000D03*
X6350000Y8890000D03*
X6350000Y7620000D03*
X6350000Y6350000D03*
X6350000Y5080000D03*
X6350000Y3124000D03*
X15240000Y3124000D03*
X16510000Y3124000D03*
X17780000Y3124000D03*
X19050000Y3124000D03*
X20320000Y3124000D03*
X21590000Y3124000D03*
X22860000Y3124000D03*
X24130000Y3124000D03*
X25400000Y3124000D03*
X26670000Y3124000D03*
X29210000Y11430000D03*
X29210000Y12700000D03*
X29210000Y13970000D03*
X29210000Y15240000D03*
X29210000Y16510000D03*
X29210000Y17780000D03*
X29210000Y19050000D03*
X29210000Y20320000D03*
X29210000Y21590000D03*
X29210000Y22860000D03*
X29210000Y24130000D03*
X29210000Y25400000D03*
X29210000Y26670000D03*
X29210000Y27940000D03*
X29210000Y29210000D03*
X29210000Y30480000D03*
G04 #@! TD*
D14*
G04 #@! TO.N,GND*
X6350000Y35560000D02*
X6350000Y34290000D01*
X6350000Y38100000D02*
X6350000Y36830000D01*
X8890000Y38100000D02*
X7620000Y38100000D01*
X11430000Y38100000D02*
X10160000Y38100000D01*
X13970000Y38100000D02*
X12700000Y38100000D01*
X23730001Y38499999D02*
X19449999Y38499999D01*
X24130000Y38100000D02*
X23730001Y38499999D01*
X19449999Y38499999D02*
X19050000Y38100000D01*
X26670000Y38100000D02*
X25400000Y38100000D01*
X6350000Y24130000D02*
X6350000Y25400000D01*
X6350000Y21590000D02*
X6350000Y22860000D01*
X6350000Y19050000D02*
X6350000Y20320000D01*
X6350000Y16510000D02*
X6350000Y17780000D01*
X6350000Y13970000D02*
X6350000Y15240000D01*
X6350000Y11430000D02*
X6350000Y12700000D01*
X6350000Y8890000D02*
X6350000Y10160000D01*
X6350000Y6350000D02*
X6350000Y7620000D01*
X6350000Y3124000D02*
X6350000Y5080000D01*
X16510000Y3124000D02*
X15240000Y3124000D01*
X19050000Y3124000D02*
X17780000Y3124000D01*
X21590000Y3124000D02*
X20320000Y3124000D01*
X24130000Y3124000D02*
X22860000Y3124000D01*
X26670000Y3124000D02*
X25400000Y3124000D01*
X29210000Y13970000D02*
X29210000Y12700000D01*
X29210000Y16510000D02*
X29210000Y15240000D01*
X29210000Y19050000D02*
X29210000Y17780000D01*
X29210000Y21590000D02*
X29210000Y20320000D01*
X29210000Y24130000D02*
X29210000Y22860000D01*
X29210000Y26670000D02*
X29210000Y25400000D01*
X29210000Y29210000D02*
X29210000Y27940000D01*
X28575000Y31115000D02*
X29210000Y30480000D01*
X28575000Y32385000D02*
X28575000Y31115000D01*
D15*
G04 #@! TO.N,/A*
X16510000Y34410000D02*
X16510000Y31910000D01*
X16510000Y31910000D02*
X15080000Y30480000D01*
X15080000Y30480000D02*
X10420000Y30480000D01*
X10420000Y30480000D02*
X7620000Y30480000D01*
G04 #@! TO.N,Net-(D2-Pad1)*
X7620000Y27940000D02*
X17620000Y27940000D01*
X17620000Y27940000D02*
X21590000Y31910000D01*
X21590000Y31910000D02*
X21590000Y34410000D01*
G04 #@! TD*
D16*
G04 #@! TO.N,GND*
G36*
X29553001Y2897000D02*
X5861000Y2897000D01*
X5861000Y26504635D01*
X9620000Y26504635D01*
X9786607Y26537775D01*
X9927850Y26632150D01*
X10022225Y26773393D01*
X10055365Y26940000D01*
X10055365Y27113000D01*
X17538556Y27113000D01*
X17620000Y27096800D01*
X17701444Y27113000D01*
X17701448Y27113000D01*
X17942679Y27160984D01*
X18216233Y27343767D01*
X18262372Y27412819D01*
X21324189Y30474635D01*
X22590000Y30474635D01*
X22756607Y30507775D01*
X22897850Y30602150D01*
X22992225Y30743393D01*
X23025365Y30910000D01*
X23025365Y37910000D01*
X22992225Y38076607D01*
X22897850Y38217850D01*
X22756607Y38312225D01*
X22590000Y38345365D01*
X20590000Y38345365D01*
X20423393Y38312225D01*
X20282150Y38217850D01*
X20187775Y38076607D01*
X20154635Y37910000D01*
X20154635Y31644189D01*
X17277447Y28767000D01*
X10055365Y28767000D01*
X10055365Y28940000D01*
X10022225Y29106607D01*
X9953140Y29210000D01*
X10022225Y29313393D01*
X10055365Y29480000D01*
X10055365Y29653000D01*
X14998556Y29653000D01*
X15080000Y29636800D01*
X15161444Y29653000D01*
X15161448Y29653000D01*
X15402679Y29700984D01*
X15676233Y29883767D01*
X15722372Y29952819D01*
X16244189Y30474635D01*
X17510000Y30474635D01*
X17676607Y30507775D01*
X17817850Y30602150D01*
X17912225Y30743393D01*
X17945365Y30910000D01*
X17945365Y37910000D01*
X17912225Y38076607D01*
X17817850Y38217850D01*
X17676607Y38312225D01*
X17510000Y38345365D01*
X15510000Y38345365D01*
X15343393Y38312225D01*
X15202150Y38217850D01*
X15107775Y38076607D01*
X15074635Y37910000D01*
X15074635Y31644189D01*
X14737447Y31307000D01*
X10055365Y31307000D01*
X10055365Y31480000D01*
X10022225Y31646607D01*
X9927850Y31787850D01*
X9786607Y31882225D01*
X9620000Y31915365D01*
X5861000Y31915365D01*
X5861000Y38589000D01*
X29553000Y38589000D01*
X29553001Y2897000D01*
X29553001Y2897000D01*
G37*
X29553001Y2897000D02*
X5861000Y2897000D01*
X5861000Y26504635D01*
X9620000Y26504635D01*
X9786607Y26537775D01*
X9927850Y26632150D01*
X10022225Y26773393D01*
X10055365Y26940000D01*
X10055365Y27113000D01*
X17538556Y27113000D01*
X17620000Y27096800D01*
X17701444Y27113000D01*
X17701448Y27113000D01*
X17942679Y27160984D01*
X18216233Y27343767D01*
X18262372Y27412819D01*
X21324189Y30474635D01*
X22590000Y30474635D01*
X22756607Y30507775D01*
X22897850Y30602150D01*
X22992225Y30743393D01*
X23025365Y30910000D01*
X23025365Y37910000D01*
X22992225Y38076607D01*
X22897850Y38217850D01*
X22756607Y38312225D01*
X22590000Y38345365D01*
X20590000Y38345365D01*
X20423393Y38312225D01*
X20282150Y38217850D01*
X20187775Y38076607D01*
X20154635Y37910000D01*
X20154635Y31644189D01*
X17277447Y28767000D01*
X10055365Y28767000D01*
X10055365Y28940000D01*
X10022225Y29106607D01*
X9953140Y29210000D01*
X10022225Y29313393D01*
X10055365Y29480000D01*
X10055365Y29653000D01*
X14998556Y29653000D01*
X15080000Y29636800D01*
X15161444Y29653000D01*
X15161448Y29653000D01*
X15402679Y29700984D01*
X15676233Y29883767D01*
X15722372Y29952819D01*
X16244189Y30474635D01*
X17510000Y30474635D01*
X17676607Y30507775D01*
X17817850Y30602150D01*
X17912225Y30743393D01*
X17945365Y30910000D01*
X17945365Y37910000D01*
X17912225Y38076607D01*
X17817850Y38217850D01*
X17676607Y38312225D01*
X17510000Y38345365D01*
X15510000Y38345365D01*
X15343393Y38312225D01*
X15202150Y38217850D01*
X15107775Y38076607D01*
X15074635Y37910000D01*
X15074635Y31644189D01*
X14737447Y31307000D01*
X10055365Y31307000D01*
X10055365Y31480000D01*
X10022225Y31646607D01*
X9927850Y31787850D01*
X9786607Y31882225D01*
X9620000Y31915365D01*
X5861000Y31915365D01*
X5861000Y38589000D01*
X29553000Y38589000D01*
X29553001Y2897000D01*
G04 #@! TD*
M02*
