M48
;DRILL file {KiCad (6.0.0-rc1-dev-205-gc0615c5ef)} date 08/07/18 08:16:53
;FORMAT={3:3/ absolute / metric / suppress leading zeros}
FMAT,2
METRIC,TZ
T1C0.400
T2C0.889
T3C1.500
%
G90
G05
M71
T1
X6350Y38100
X6350Y36830
X6350Y35560
X6350Y34290
X6350Y33020
X6350Y25400
X6350Y24130
X6350Y22860
X6350Y21590
X6350Y20320
X6350Y19050
X6350Y17780
X6350Y16510
X6350Y15240
X6350Y13970
X6350Y12700
X6350Y11430
X6350Y10160
X6350Y8890
X6350Y7620
X6350Y6350
X6350Y5080
X6350Y3124
X7620Y38100
X8890Y38100
X10160Y38100
X11430Y38100
X12700Y38100
X13970Y38100
X15240Y3124
X16510Y3124
X17780Y3124
X19050Y38100
X19050Y3124
X20320Y3124
X21590Y3124
X22860Y3124
X24130Y38100
X24130Y3124
X25400Y38100
X25400Y3124
X26670Y38100
X26670Y3124
X29210Y30480
X29210Y29210
X29210Y27940
X29210Y26670
X29210Y25400
X29210Y24130
X29210Y22860
X29210Y21590
X29210Y20320
X29210Y19050
X29210Y17780
X29210Y16510
X29210Y15240
X29210Y13970
X29210Y12700
X29210Y11430
T2
X28575Y9525
X28575Y6985
X28575Y4445
X8255Y3810
X10795Y3810
X13335Y3810
X28575Y37465
X28575Y34925
X28575Y32385
T3
X19050Y19640
T0
M30
