G04 #@! TF.GenerationSoftware,KiCad,Pcbnew,(6.0.0-rc1-dev-205-gc0615c5ef)*
G04 #@! TF.CreationDate,2018-08-07T08:16:50+02:00*
G04 #@! TF.ProjectId,DIODECOVER01B,44494F4445434F5645523031422E6B69,REV*
G04 #@! TF.SameCoordinates,Original*
G04 #@! TF.FileFunction,Soldermask,Top*
G04 #@! TF.FilePolarity,Negative*
%FSLAX46Y46*%
G04 Gerber Fmt 4.6, Leading zero omitted, Abs format (unit mm)*
G04 Created by KiCad (PCBNEW (6.0.0-rc1-dev-205-gc0615c5ef)) date 08/07/18 08:16:50*
%MOMM*%
%LPD*%
G01*
G04 APERTURE LIST*
%ADD10C,0.150000*%
%ADD11R,1.924000X1.924000*%
%ADD12C,5.400000*%
G04 APERTURE END LIST*
D10*
G36*
X5080000Y1905000D02*
X30480000Y1905000D01*
X30480000Y6350000D01*
X5080000Y6350000D01*
X5080000Y1905000D01*
G37*
X5080000Y1905000D02*
X30480000Y1905000D01*
X30480000Y6350000D01*
X5080000Y6350000D01*
X5080000Y1905000D01*
G36*
X30480000Y39370000D02*
X30480000Y1905000D01*
X24765000Y1905000D01*
X24765000Y39370000D01*
X30480000Y39370000D01*
G37*
X30480000Y39370000D02*
X30480000Y1905000D01*
X24765000Y1905000D01*
X24765000Y39370000D01*
X30480000Y39370000D01*
G36*
X5080000Y39370000D02*
X30480000Y39370000D01*
X30480000Y35560000D01*
X5080000Y35560000D01*
X5080000Y39370000D01*
G37*
X5080000Y39370000D02*
X30480000Y39370000D01*
X30480000Y35560000D01*
X5080000Y35560000D01*
X5080000Y39370000D01*
G36*
X5080000Y39370000D02*
X30480000Y39370000D01*
X30480000Y1905000D01*
X5080000Y1905000D01*
X5080000Y39370000D01*
G37*
X5080000Y39370000D02*
X30480000Y39370000D01*
X30480000Y1905000D01*
X5080000Y1905000D01*
X5080000Y39370000D01*
D11*
G04 #@! TO.C,J1*
X13335000Y3810000D03*
X10795000Y3810000D03*
X8255000Y3810000D03*
G04 #@! TD*
G04 #@! TO.C,J2*
X28575000Y9525000D03*
X28575000Y6985000D03*
X28575000Y4445000D03*
G04 #@! TD*
G04 #@! TO.C,J3*
X28575000Y32385000D03*
X28575000Y34925000D03*
X28575000Y37465000D03*
G04 #@! TD*
D12*
G04 #@! TO.C,D2*
X19050000Y19640000D03*
G04 #@! TD*
M02*
