M48
;DRILL file {KiCad (6.0.0-rc1-dev-205-gc0615c5ef)} date 08/06/18 10:52:31
;FORMAT={-:-/ absolute / inch / decimal}
FMAT,2
INCH,TZ
T1C0.0157
%
G90
G05
M72
T1
X0.25Y1.5
X0.25Y1.45
X0.25Y1.4
X0.25Y1.35
X0.25Y1.3
X0.25Y1.25
X0.25Y1.2
X0.25Y1.15
X0.25Y1.1
X0.25Y1.05
X0.25Y1.
X0.25Y0.95
X0.25Y0.9
X0.25Y0.85
X0.25Y0.8
X0.25Y0.75
X0.25Y0.7
X0.25Y0.65
X0.25Y0.6
X0.25Y0.55
X0.25Y0.5
X0.25Y0.45
X0.25Y0.4
X0.25Y0.35
X0.25Y0.3
X0.25Y0.25
X0.25Y0.2
X0.25Y0.15
X0.3Y1.5
X0.3Y0.123
X0.35Y1.5
X0.35Y0.123
X0.4Y1.5
X0.4Y0.123
X0.45Y1.5
X0.45Y0.123
X0.5Y1.5
X0.5Y0.123
X0.55Y1.5
X0.55Y0.123
X0.6Y1.5
X0.6Y1.45
X0.6Y1.4
X0.6Y1.35
X0.6Y1.3
X0.6Y1.25
X0.6Y1.2
X0.6Y1.15
X0.6Y1.1
X0.6Y1.05
X0.6Y1.
X0.6Y0.95
X0.6Y0.9
X0.6Y0.85
X0.6Y0.8
X0.6Y0.75
X0.6Y0.7
X0.6Y0.65
X0.6Y0.6
X0.6Y0.55
X0.6Y0.5
X0.6Y0.45
X0.6Y0.4
X0.6Y0.35
X0.6Y0.3
X0.6Y0.25
X0.6Y0.2
X0.6Y0.123
T0
M30
