M48
;DRILL file {KiCad (6.0.0-rc1-dev-205-gc0615c5ef)} date 08/07/18 08:16:30
;FORMAT={3:3/ absolute / metric / suppress leading zeros}
FMAT,2
METRIC,TZ
T1C0.400
%
G90
G05
M71
T1
X6350Y38100
X6350Y36830
X6350Y35560
X6350Y34290
X6350Y33020
X6350Y31750
X6350Y30480
X6350Y29210
X6350Y27940
X6350Y26670
X6350Y25400
X6350Y24130
X6350Y22860
X6350Y21590
X6350Y20320
X6350Y19050
X6350Y17780
X6350Y16510
X6350Y15240
X6350Y13970
X6350Y12700
X6350Y11430
X6350Y10160
X6350Y8890
X6350Y7620
X6350Y6350
X6350Y5080
X6350Y3810
X7620Y38100
X7620Y3124
X8890Y38100
X8890Y3124
X10160Y38100
X10160Y3124
X11430Y38100
X11430Y3124
X12700Y38100
X12700Y3124
X13970Y38100
X13970Y3124
X15240Y38100
X15240Y36830
X15240Y35560
X15240Y34290
X15240Y33020
X15240Y31750
X15240Y30480
X15240Y29210
X15240Y27940
X15240Y26670
X15240Y25400
X15240Y24130
X15240Y22860
X15240Y21590
X15240Y20320
X15240Y19050
X15240Y17780
X15240Y16510
X15240Y15240
X15240Y13970
X15240Y12700
X15240Y11430
X15240Y10160
X15240Y8890
X15240Y7620
X15240Y6350
X15240Y5080
X15240Y3124
T0
M30
