G04 #@! TF.GenerationSoftware,KiCad,Pcbnew,(6.0.0-rc1-dev-205-gc0615c5ef)*
G04 #@! TF.CreationDate,2018-08-07T08:16:18+02:00*
G04 #@! TF.ProjectId,DIODECOVER01C,44494F4445434F5645523031432E6B69,REV*
G04 #@! TF.SameCoordinates,Original*
G04 #@! TF.FileFunction,Copper,L1,Top,Signal*
G04 #@! TF.FilePolarity,Positive*
%FSLAX46Y46*%
G04 Gerber Fmt 4.6, Leading zero omitted, Abs format (unit mm)*
G04 Created by KiCad (PCBNEW (6.0.0-rc1-dev-205-gc0615c5ef)) date 08/07/18 08:16:18*
%MOMM*%
%LPD*%
G01*
G04 APERTURE LIST*
G04 #@! TA.AperFunction,SMDPad,CuDef*
%ADD10R,2.000000X1.200000*%
G04 #@! TD*
G04 #@! TA.AperFunction,ViaPad*
%ADD11C,0.800000*%
G04 #@! TD*
G04 #@! TA.AperFunction,Conductor*
%ADD12C,0.250000*%
G04 #@! TD*
G04 #@! TA.AperFunction,Conductor*
%ADD13C,0.254000*%
G04 #@! TD*
G04 APERTURE END LIST*
D10*
G04 #@! TO.P,J1,2*
G04 #@! TO.N,GND*
X10795000Y25400000D03*
G04 #@! TO.P,J1,1*
X10795000Y27940000D03*
G04 #@! TD*
D11*
G04 #@! TO.N,GND*
X15240000Y38100000D03*
X15240000Y36830000D03*
X15240000Y35560000D03*
X15240000Y34290000D03*
X15240000Y33020000D03*
X15240000Y31750000D03*
X15240000Y30480000D03*
X15240000Y29210000D03*
X15240000Y27940000D03*
X15240000Y26670000D03*
X15240000Y25400000D03*
X15240000Y24130000D03*
X15240000Y22860000D03*
X15240000Y21590000D03*
X15240000Y20320000D03*
X15240000Y19050000D03*
X15240000Y17780000D03*
X15240000Y16510000D03*
X15240000Y15240000D03*
X15240000Y13970000D03*
X15240000Y12700000D03*
X15240000Y11430000D03*
X15240000Y10160000D03*
X15240000Y8890000D03*
X15240000Y7620000D03*
X15240000Y6350000D03*
X15240000Y5080000D03*
X15240000Y3124000D03*
X13970000Y3124000D03*
X12700000Y3124000D03*
X11430000Y3124000D03*
X10160000Y3124000D03*
X8890000Y3124000D03*
X7620000Y3124000D03*
X6350000Y3810000D03*
X6350000Y26670000D03*
X6350000Y27940000D03*
X6350000Y29210000D03*
X6350000Y30480000D03*
X6350000Y31750000D03*
X6350000Y33020000D03*
X6350000Y34290000D03*
X6350000Y35560000D03*
X6350000Y36830000D03*
X6350000Y38100000D03*
X7620000Y38100000D03*
X8890000Y38100000D03*
X10160000Y38100000D03*
X11430000Y38100000D03*
X12700000Y38100000D03*
X13970000Y38100000D03*
X6350000Y25400000D03*
X6350000Y24130000D03*
X6350000Y22860000D03*
X6350000Y21590000D03*
X6350000Y20320000D03*
X6350000Y19050000D03*
X6350000Y17780000D03*
X6350000Y16510000D03*
X6350000Y15240000D03*
X6350000Y13970000D03*
X6350000Y12700000D03*
X6350000Y11430000D03*
X6350000Y10160000D03*
X6350000Y8890000D03*
X6350000Y7620000D03*
X6350000Y6350000D03*
X6350000Y5080000D03*
G04 #@! TD*
D12*
G04 #@! TO.N,GND*
X15240000Y35560000D02*
X15240000Y36830000D01*
X15240000Y33020000D02*
X15240000Y34290000D01*
X15240000Y30480000D02*
X15240000Y31750000D01*
X15240000Y27940000D02*
X15240000Y29210000D01*
X15240000Y25400000D02*
X15240000Y26670000D01*
X15240000Y22860000D02*
X15240000Y24130000D01*
X15240000Y20320000D02*
X15240000Y21590000D01*
X15240000Y17780000D02*
X15240000Y19050000D01*
X15240000Y15240000D02*
X15240000Y16510000D01*
X15240000Y12700000D02*
X15240000Y13970000D01*
X15240000Y10160000D02*
X15240000Y11430000D01*
X15240000Y7620000D02*
X15240000Y8890000D01*
X15240000Y5080000D02*
X15240000Y6350000D01*
X13970000Y3124000D02*
X15240000Y3124000D01*
X11430000Y3124000D02*
X12700000Y3124000D01*
X8890000Y3124000D02*
X10160000Y3124000D01*
X6934000Y3810000D02*
X7620000Y3124000D01*
X6350000Y3810000D02*
X6934000Y3810000D01*
X6350000Y27940000D02*
X6350000Y26670000D01*
X6350000Y30480000D02*
X6350000Y29210000D01*
X6350000Y33020000D02*
X6350000Y31750000D01*
X6350000Y35560000D02*
X6350000Y34290000D01*
X6350000Y38100000D02*
X6350000Y36830000D01*
X8890000Y38100000D02*
X7620000Y38100000D01*
X11430000Y38100000D02*
X10160000Y38100000D01*
X13970000Y38100000D02*
X12700000Y38100000D01*
X6350000Y24130000D02*
X6350000Y25400000D01*
X6350000Y21590000D02*
X6350000Y22860000D01*
X6350000Y19050000D02*
X6350000Y20320000D01*
X6350000Y16510000D02*
X6350000Y17780000D01*
X6350000Y13970000D02*
X6350000Y15240000D01*
X6350000Y11430000D02*
X6350000Y12700000D01*
X6350000Y8890000D02*
X6350000Y10160000D01*
X6350000Y6350000D02*
X6350000Y7620000D01*
X6350000Y3124000D02*
X6350000Y5080000D01*
G04 #@! TD*
D13*
G04 #@! TO.N,GND*
G36*
X16107001Y2597000D02*
X5561000Y2597000D01*
X5561000Y38889000D01*
X16107000Y38889000D01*
X16107001Y2597000D01*
X16107001Y2597000D01*
G37*
X16107001Y2597000D02*
X5561000Y2597000D01*
X5561000Y38889000D01*
X16107000Y38889000D01*
X16107001Y2597000D01*
G04 #@! TD*
M02*
